
        <svg xmlns="http://www.w3.org/2000/svg" xmlns:xlink="http://www.w3.org/1999/xlink" version="1.1" width="3162.095127628495" 
        height="1151.028230836022" viewBox="0 0 3162.095127628495 1151.028230836022">
			
			<g transform="scale(8.104756381424762) translate(10, 10)">
				<defs id="SvgjsDefs3252"></defs><g id="SvgjsG3253" featureKey="symbolFeature-0" transform="matrix(78.62802853468463,0,0,78.62802853468463,1821.4697930665948,-7156.34856550536)" fill="#111111"><g xmlns="http://www.w3.org/2000/svg" id="SvgjsG1020" transform="matrix(0.001938846068497311,0,0,0.001938846068497311,-23.1654464306677,91.01523537288327)"><g><path d="M99.4,183.9l139-13.8l0.1-1.3c0.2-4.6,0.4-9.2,0.8-13.6L54.9,167.7l26.6,4.8c1,0.2,1.9,0.6,2.7,1.2l14,10.5    C98.6,184.1,99,184,99.4,183.9L99.4,183.9z M316.2,138.7l-1.7-11.7c-5.2-36.4-15.8-64.3-29.2-83.6c-16.1,21.1-28.6,54.2-33.6,99.6    L316.2,138.7L316.2,138.7z M278.1,34.2c-4.5-5.1-9.2-9.4-14.1-12.8c-10.4-7.2-21.4-10.5-32.3-9.9c-10.9,0.6-21.9,5.3-32,14    c-23.5,20.1-42.4,61.3-47.3,124.2l88-5.9C245.5,93.7,259.7,57.2,278.1,34.2L278.1,34.2z M140.8,150.5    c5-67.2,25.7-111.6,51.4-133.7C204.3,6.4,217.6,0.9,231,0.1c13.5-0.8,27,3.2,39.5,12c5.3,3.7,10.4,8.2,15.3,13.6    c1.3-1.3,2.6-2.5,3.9-3.6C301.7,11.4,315,5.6,328.5,4.5c13.5-1,27.1,2.7,39.7,11.3c26,17.6,47.9,55.8,56.2,114l1.3,9.3    c14,3.3,35.1,3.5,56,3.8c9.5,0.1,18.9,0.2,27.6,0.6h0.1c0.4,0,0.8,0.1,1.1,0.2h0l0.1,0l0.1,0l0.1,0l0.1,0l0,0    c0.9,0.3,1.7,0.8,2.3,1.4l0,0c0,0,0.1,0.1,0.1,0.1l0,0c0,0,0.1,0.1,0.1,0.1l0,0c0.4,0.4,0.7,0.9,1,1.5l0,0l0,0.1l0,0l0,0.1l0,0.1    l0,0c0,0,0,0.1,0,0.1l0,0c0,0,0,0.1,0,0.1l0,0c0.2,0.5,0.3,1,0.3,1.5v0v0v0v0v0.1v0v0v0v0v0v0v0v0v0v0v0.1v0l0,0v0    c0,0,0,0.1,0,0.1l2.4,518.6c0,2.6-1.6,4.7-3.9,5.5v0l-386.8,127c-0.1,0-0.1,0-0.2,0.1l0,0c0,0-0.1,0-0.1,0l0,0l-0.1,0l0,0l-0.1,0    l-0.1,0l-0.1,0l-0.1,0h0c0,0-0.1,0-0.1,0h0c-0.4,0.1-0.7,0.1-1.1,0.1l0,0h0c-0.9,0-1.8-0.3-2.7-0.8l-119-70.8    c-1.9-1.1-2.9-3.2-2.8-5.3l2.1-558.3c-0.2-3.1,2.2-5.9,5.3-6.1L140.8,150.5L140.8,150.5z M293,34.6c15.3,20.9,27.2,51.3,32.9,90.8    l1.8,12.5l81.5-5.5c1.5-0.1,3,0.4,4.1,1.3c0.1,0.1,0.2,0.1,0.2,0.2l-0.4-2.6c-7.8-54.7-27.8-90.2-51.3-106.2    c-10.4-7-21.5-10.2-32.4-9.3c-11,0.9-22,5.7-32.1,14.7C295.8,31.9,294.4,33.2,293,34.6z M249.9,169.1l166.2-16.4l-0.7-4.8    c-2.8-1.1-5.4-2.3-7.6-3.7l-157.1,10.5C250.4,159.3,250.1,164.1,249.9,169.1z M427.5,151.5l1.6-0.2c-0.6-0.1-1.1-0.2-1.7-0.3    L427.5,151.5L427.5,151.5z M412.6,225.1c-3.2-0.2-5.6-2.9-5.4-6c0.2-3.2,2.9-5.6,6-5.4c4.3,0.2,6.9-0.5,8.3-1.8    c-0.1-0.1-0.2-0.2-0.3-0.3c-2.1-2-5-3.3-8.3-3.3s-6.2,1.3-8.3,3.3c-2.1,2-3.4,4.7-3.4,7.8c0,3,1.3,5.8,3.4,7.8    c2.1,2,5,3.3,8.3,3.3s6.2-1.3,8.3-3.3c1-1,1.8-2.1,2.4-3.4C420.6,224.8,417,225.3,412.6,225.1L412.6,225.1z M423.2,204.1    c-0.1-1.5-0.2-3.1-0.5-4.9l-5-35.3l-168.3,16.6l-1.7,42.5c0,0.9,0,1.6,0,2.3c0,4,0,7.2-2.4,10.7c0.4,1.5,0.6,3.1,0.6,4.7    c0,5.5-2.3,10.4-6,14c-3.7,3.6-8.8,5.8-14.4,5.8c-5.6,0-10.7-2.2-14.4-5.8c-3.7-3.6-6-8.6-6-14s2.3-10.4,6-14    c3.7-3.6,8.8-5.8,14.4-5.8c4,0,7.7,1.1,10.8,3c0-0.5,0-0.9,0-1.4l1.7-41l-132,13.1l24.2,592.4l375.7-123.4l-2.4-508.4l-74.4,7.3    l5,34.9c1,7.1,0.9,13.8-2,18.9c-0.2,0.3-0.3,0.6-0.5,0.8c0.1,0.6,0.1,1.3,0.1,2c0,5.1-2.1,9.6-5.6,12.9c-3.4,3.3-8.1,5.3-13.2,5.3    c-5.2,0-9.8-2-13.2-5.3c-3.4-3.3-5.6-7.9-5.6-12.9s2.1-9.6,5.6-12.9c3.4-3.3,8.1-5.3,13.2-5.3    C416.7,201.1,420.3,202.2,423.2,204.1L423.2,204.1z M238.6,242.4c-1.1,0.7-2.2,1.2-3.4,1.7c-2.9,1.3-6.1,2-9,2.5    c-3.1,0.4-6-1.7-6.5-4.9c-0.4-3.1,1.7-6,4.9-6.5c2-0.3,4.2-0.8,6.1-1.7c1.3-0.6,2.5-1.3,3.5-2.1c-2.3-2-5.4-3.2-8.8-3.2    c-3.7,0-7,1.4-9.4,3.7c-2.4,2.3-3.8,5.4-3.8,8.9c0,3.5,1.5,6.6,3.8,8.9c2.4,2.3,5.7,3.7,9.4,3.7c3.7,0,7-1.4,9.4-3.7    C236.9,247.8,238.2,245.2,238.6,242.4L238.6,242.4z M77.4,678.8l-0.2-495.5L13.5,172l-2.1,544.8L77.4,678.8z M84.3,188.1    l0.2,492.1l33.3,85L94.5,195.8L84.3,188.1z M117.5,784l-38.4-98l-64.2,37L117.5,784L117.5,784z"></path></g></g></g><g id="SvgjsG3254" featureKey="nameFeature-0" transform="matrix(1.4450088513910875,0,0,1.4450088513910875,99,8.550054805143295)" fill="#7d5757"><path d="M15.36 12.920000000000002 l-6.2 0 l0 27.08 l-2.96 0 l0 -27.08 l-6.2 0 l0 -2.92 l15.36 0 l0 2.92 z M39.226 40 l-3.4399 -0.000039062 l-6.28 -12.12 l-5.2 0 l0 12.12 l-2.68 0 l0 -30 l6.88 0 c2.7467 0 4.92 0.78668 6.52 2.36 s2.4 3.7333 2.4 6.48 c0 0.85332 -0.11332 1.72 -0.34 2.6 s-0.55336 1.7067 -0.98004 2.48 s-0.95336 1.4733 -1.58 2.1 s-1.34 1.1134 -2.14 1.46 z M34.586 18.64 c0 -0.93332 -0.16 -1.7733 -0.48 -2.52 s-0.76 -1.38 -1.32 -1.9 s-1.2267 -0.92 -2 -1.2 s-1.6133 -0.42 -2.52 -0.42 l-3.96 0 l0 12.52 l4.2 0 c2.1333 0 3.68 -0.57332 4.64 -1.72 s1.44 -2.7334 1.44 -4.76 z M60.05200000000001 40 l-15 0 l0 -30 l14.72 0 l0 3.04 l-11.96 0 l0 10.32 l11.88 0 l0 2.6 l-11.88 0 l0 11 l12.24 0 l0 3.04 z M82.518 40 l-3.12 0 l-10.4 -23.6 l0 23.6 l-2.88 0 l0 -30 l2.88 0 l10.44 22.6 l0.24 -22.6 l2.84 0 l0 30 z M104.464 24.36 c0 0.98668 0.0067968 2.0599 0.020117 3.2199 s-0.033359 2.32 -0.14004 3.48 s-0.3 2.28 -0.58 3.36 s-0.71332 2.0333 -1.3 2.86 s-1.3534 1.4867 -2.3 1.98 s-2.1267 0.74 -3.54 0.74 l-7.28 0 l0 -30 l7 0 c1.4667 0 2.68 0.20668 3.64 0.62 s1.7467 0.97332 2.36 1.68 s1.0666 1.5334 1.36 2.48 s0.49332 1.9534 0.6 3.02 s0.16 2.16 0.16 3.28 l0 3.28 z M101.74399999999999 24.64 l0.000039062 -1.7199 c0 -0.74668 -0.02 -1.52 -0.06 -2.32 s-0.09332 -1.56 -0.16 -2.28 s-0.15336 -1.2533 -0.26004 -1.6 c-0.45332 -1.3333 -1.08 -2.32 -1.88 -2.96 s-1.92 -0.96 -3.36 -0.96 l-4 0 l0 24.32 l4.52 0 c0.58668 0 1.12 -0.10668 1.6 -0.32 s0.92 -0.5 1.32 -0.86 s0.74 -0.77332 1.02 -1.24 s0.51332 -0.95336 0.7 -1.46 c0.13332 -0.34668 0.23332 -0.91336 0.3 -1.7 s0.12 -1.62 0.16 -2.5 s0.06668 -1.7267 0.08 -2.54 s0.02 -1.4333 0.02 -1.86 z M131.52999999999997 40 l-2.68 0 l0 -23.16 l-6.28 15.24 l-2.72 -0.04 l-6.12 -15.2 l0 23.16 l-2.68 0 l0 -30 l2.68 0 l7.52 18.36 l7.6 -18.36 l2.68 0 l0 30 z M142.15599999999998 40 l-3 0 l0 -30 l3 0 l0 30 z M165.66199999999998 40 l-3.12 0 l-10.4 -23.6 l0 23.6 l-2.88 0 l0 -30 l2.88 0 l10.44 22.6 l0.24 -22.6 l2.84 0 l0 30 z M187.64799999999997 40 l-15 0 l0 -30 l14.72 0 l0 3.04 l-11.96 0 l0 10.32 l11.88 0 l0 2.6 l-11.88 0 l0 11 l12.24 0 l0 3.04 z"></path></g><g id="SvgjsG3255" featureKey="sloganFeature-0" transform="matrix(0.960574786808958,0,0,0.960574786808958,98.22727107549298,80.54393583385647)" fill="#111111"><path d="M15.88 19.34 c0.16 0.02 0.04 0.66 -0.12 0.66 l-5.36 0 c-0.16 0 -0.28 -0.64 -0.12 -0.66 c1.02 -0.14 1.68 -0.52 1.68 -1.8 l0 -3.5 c-0.1 -0.34 -0.52 -0.34 -0.9 -0.34 l-5.36 0 c-0.38 0 -0.8 0 -0.9 0.34 l0 3.5 c0 1.4 0.8 1.68 1.66 1.8 c0.16 0.02 0.04 0.66 -0.12 0.66 l-5.34 0 c-0.16 0 -0.28 -0.64 -0.12 -0.66 c1 -0.14 1.68 -0.52 1.68 -1.8 l0 -9.1 c0 -1.26 -0.68 -1.66 -1.68 -1.8 c-0.16 -0.02 -0.04 -0.64 0.12 -0.64 l5.34 0 c0.16 0 0.28 0.62 0.12 0.64 c-0.86 0.12 -1.66 0.4 -1.66 1.8 l0 3.74 c0.1 0.34 0.52 0.34 0.9 0.34 l5.36 0 c0.38 0 0.8 0 0.9 -0.34 l0 -3.74 c0 -1.26 -0.66 -1.66 -1.68 -1.8 c-0.16 -0.02 -0.04 -0.64 0.12 -0.64 l5.36 0 c0.16 0 0.28 0.62 0.12 0.64 c-0.88 0.12 -1.68 0.4 -1.68 1.8 l0 9.1 c0 1.4 0.8 1.68 1.68 1.8 z M33.5835 19.34 c0.28 0.04 0.2 0.66 -0.04 0.66 l-5.14 0 c-0.26 0 -0.28 -0.62 -0.06 -0.66 c0.76 -0.14 1.54 -0.42 0.8 -2.14 l-0.26 -0.6 c-0.2 -0.46 -0.58 -0.5 -1.2 -0.5 l-4.12 0 c-0.6 0 -0.98 0.04 -1.16 0.5 l-0.24 0.6 c-0.72 1.74 0.04 2 1.02 2.14 c0.24 0.04 0.2 0.66 -0.06 0.66 l-4.28 0 c-0.24 0 -0.3 -0.62 -0.06 -0.66 c0.82 -0.14 1.3 -0.44 2.06 -2.14 l3.38 -7.74 c0.78 -1.76 1.02 -2.6 1.02 -3.36 c0 -0.12 1.4 -0.44 1.46 -0.3 l4.88 11.38 c0.72 1.72 1.2 2.04 2 2.16 z M27.6235 15.04 c0.28 0 0.6 -0.04 0.48 -0.32 l-2.44 -5.82 l-2.46 5.82 c-0.12 0.28 0.2 0.32 0.48 0.32 l3.94 0 z M54.14699999999999 19.34 c0.16 0.02 0.04 0.66 -0.1 0.66 l-5.06 0 c-0.14 0 -0.24 -0.64 -0.12 -0.66 c0.8 -0.12 1.44 -0.5 1.38 -1.8 l-0.36 -6.94 l-3.38 6.82 c-0.38 0.8 -0.72 1.7 -0.78 2.04 c-0.04 0.24 -0.42 0.36 -0.72 0.36 s-0.48 -0.12 -0.6 -0.36 l-4.68 -8.9 l-0.3 6.98 c-0.06 1.38 0.7 1.72 1.38 1.8 c0.16 0.02 0.04 0.66 -0.12 0.66 l-4.06 0 c-0.16 0 -0.28 -0.64 -0.12 -0.66 c0.86 -0.1 1.6 -0.4 1.68 -1.8 l0.62 -11.52 c0.02 -0.32 0.74 -0.34 0.92 0 l5.82 10.92 l5.4 -10.92 c0.16 -0.34 0.9 -0.32 0.92 0.02 l0.64 11.5 c0.06 1.4 0.78 1.7 1.64 1.8 z M71.8505 19.34 c0.28 0.04 0.2 0.66 -0.04 0.66 l-5.14 0 c-0.26 0 -0.28 -0.62 -0.06 -0.66 c0.76 -0.14 1.54 -0.42 0.8 -2.14 l-0.26 -0.6 c-0.2 -0.46 -0.58 -0.5 -1.2 -0.5 l-4.12 0 c-0.6 0 -0.98 0.04 -1.16 0.5 l-0.24 0.6 c-0.72 1.74 0.04 2 1.02 2.14 c0.24 0.04 0.2 0.66 -0.06 0.66 l-4.28 0 c-0.24 0 -0.3 -0.62 -0.06 -0.66 c0.82 -0.14 1.3 -0.44 2.06 -2.14 l3.38 -7.74 c0.78 -1.76 1.02 -2.6 1.02 -3.36 c0 -0.12 1.4 -0.44 1.46 -0.3 l4.88 11.38 c0.72 1.72 1.2 2.04 2 2.16 z M65.8905 15.04 c0.28 0 0.6 -0.04 0.48 -0.32 l-2.44 -5.82 l-2.46 5.82 c-0.12 0.28 0.2 0.32 0.48 0.32 l3.94 0 z M89.19399999999999 19.52 c0.16 0 0.12 0.52 0 0.56 c-1.2 0.44 -2.9 0.34 -4.06 -1.16 l-3.1 -3.98 c-0.84 -1.1 -1.92 -1.28 -3.34 -1.3 l0 3.9 c0 1.4 0.94 1.64 2.26 1.8 c0.14 0.02 0.04 0.66 -0.12 0.66 l-5.94 0 c-0.16 0 -0.28 -0.64 -0.12 -0.66 c1 -0.14 1.68 -0.52 1.68 -1.8 l0 -8.98 c0 -1.32 -0.72 -1.7 -1.68 -1.96 c-0.16 -0.04 -0.06 -0.66 0.12 -0.64 c0.78 0.1 1.68 0.12 2.3 0.12 c1.42 0 2.74 -0.12 3.68 -0.12 c2.96 0 5 1.22 5 3.7 c0 2.34 -1.92 3.48 -3.52 3.58 l0 0.1 c0.76 0 1.32 0.34 2.18 1.42 l3.02 3.78 c0.6 0.76 1.16 0.98 1.64 0.98 z M79.294 12.76 c3 0 4.22 -0.52 4.22 -2.58 c0 -2.14 -1.4 -3.22 -3.22 -3.22 c-1.18 0 -1.6 0.48 -1.6 1.6 l0 4.2 l0.6 0 z M91.9575 20 c-0.16 0 -0.28 -0.64 -0.12 -0.66 c1 -0.14 1.68 -0.52 1.68 -1.8 l0 -9.1 c0 -1.26 -0.68 -1.66 -1.68 -1.8 c-0.16 -0.02 -0.04 -0.64 0.12 -0.64 l5.34 0 c0.16 0 0.28 0.62 0.12 0.64 c-0.86 0.12 -1.66 0.4 -1.66 1.8 l0 9.1 c0 1.4 0.8 1.68 1.66 1.8 c0.16 0.02 0.04 0.66 -0.12 0.66 l-5.34 0 z M110.02449999999999 20.32 c-1.66 0 -4.12 -0.74 -3.88 -1.6 l0.2 -0.72 c0.54 -2.04 1.18 0.98 4.48 0.98 c1.7 0 2.6 -0.84 2.6 -2.04 c0 -0.98 -0.68 -1.4 -2.04 -2.24 l-2.08 -1.28 c-2.1 -1.3 -2.94 -2.16 -2.94 -3.62 c0 -2.42 2.34 -4.12 4.86 -4.12 c1.52 0 3.44 0.66 3.22 1.34 l-0.24 0.74 c-0.58 1.88 -1.1 -0.76 -3.84 -0.76 c-1.46 0 -2.22 0.76 -2.22 1.84 c0 0.88 0.52 1.4 1.88 2.22 l2.2 1.34 c2.08 1.28 2.92 2.18 2.92 3.6 c0 2.48 -2.44 4.32 -5.12 4.32 z M133.388 19.34 c0.16 0.02 0.04 0.66 -0.12 0.66 l-5.36 0 c-0.16 0 -0.28 -0.64 -0.12 -0.66 c1.02 -0.14 1.68 -0.52 1.68 -1.8 l0 -3.5 c-0.1 -0.34 -0.52 -0.34 -0.9 -0.34 l-5.36 0 c-0.38 0 -0.8 0 -0.9 0.34 l0 3.5 c0 1.4 0.8 1.68 1.66 1.8 c0.16 0.02 0.04 0.66 -0.12 0.66 l-5.34 0 c-0.16 0 -0.28 -0.64 -0.12 -0.66 c1 -0.14 1.68 -0.52 1.68 -1.8 l0 -9.1 c0 -1.26 -0.68 -1.66 -1.68 -1.8 c-0.16 -0.02 -0.04 -0.64 0.12 -0.64 l5.34 0 c0.16 0 0.28 0.62 0.12 0.64 c-0.86 0.12 -1.66 0.4 -1.66 1.8 l0 3.74 c0.1 0.34 0.52 0.34 0.9 0.34 l5.36 0 c0.38 0 0.8 0 0.9 -0.34 l0 -3.74 c0 -1.26 -0.66 -1.66 -1.68 -1.8 c-0.16 -0.02 -0.04 -0.64 0.12 -0.64 l5.36 0 c0.16 0 0.28 0.62 0.12 0.64 c-0.88 0.12 -1.68 0.4 -1.68 1.8 l0 9.1 c0 1.4 0.8 1.68 1.68 1.8 z M136.6315 20 c-0.16 0 -0.28 -0.64 -0.12 -0.66 c1 -0.14 1.68 -0.52 1.68 -1.8 l0 -9.1 c0 -1.26 -0.68 -1.66 -1.68 -1.8 c-0.16 -0.02 -0.04 -0.64 0.12 -0.64 l5.34 0 c0.16 0 0.28 0.62 0.12 0.64 c-0.86 0.12 -1.66 0.4 -1.66 1.8 l0 9.1 c0 1.4 0.8 1.68 1.66 1.8 c0.16 0.02 0.04 0.66 -0.12 0.66 l-5.34 0 z M159.635 19.52 c0.16 0 0.12 0.52 0 0.56 c-1.2 0.44 -2.9 0.34 -4.06 -1.16 l-3.1 -3.98 c-0.84 -1.1 -1.92 -1.28 -3.34 -1.3 l0 3.9 c0 1.4 0.94 1.64 2.26 1.8 c0.14 0.02 0.04 0.66 -0.12 0.66 l-5.94 0 c-0.16 0 -0.28 -0.64 -0.12 -0.66 c1 -0.14 1.68 -0.52 1.68 -1.8 l0 -8.98 c0 -1.32 -0.72 -1.7 -1.68 -1.96 c-0.16 -0.04 -0.06 -0.66 0.12 -0.64 c0.78 0.1 1.68 0.12 2.3 0.12 c1.42 0 2.74 -0.12 3.68 -0.12 c2.96 0 5 1.22 5 3.7 c0 2.34 -1.92 3.48 -3.52 3.58 l0 0.1 c0.76 0 1.32 0.34 2.18 1.42 l3.02 3.78 c0.6 0.76 1.16 0.98 1.64 0.98 z M149.73499999999999 12.76 c3 0 4.22 -0.52 4.22 -2.58 c0 -2.14 -1.4 -3.22 -3.22 -3.22 c-1.18 0 -1.6 0.48 -1.6 1.6 l0 4.2 l0.6 0 z M165.1985 20 c-0.18 0 -0.3 -0.62 -0.14 -0.64 c1.38 -0.16 2.3 -0.46 2.3 -1.54 l0 -9.92 c0 -0.5 -0.18 -0.66 -0.66 -0.66 l-0.58 0 c-1.96 0 -2.94 0.4 -3.36 1.3 c-0.18 0.38 -0.84 0.32 -0.76 0 c0.18 -0.74 0.34 -1.32 0.46 -2.36 c0.04 -0.38 0.26 -0.36 0.62 -0.32 c0.84 0.1 1.76 0.14 5.5 0.14 c3.76 0 5.16 -0.04 6.04 -0.14 c0.36 -0.04 0.7 -0.06 0.58 0.32 c-0.3 0.92 -0.5 1.62 -0.62 2.36 c-0.06 0.34 -0.58 0.34 -0.66 0 c-0.18 -0.88 -1.04 -1.3 -2.8 -1.3 l-0.66 0 c-0.48 0 -0.76 0.16 -0.76 0.66 l0 9.92 c0 1.08 0.92 1.38 2.28 1.54 c0.16 0.02 0.04 0.64 -0.14 0.64 l-6.64 0 z M177.88199999999998 20.04 c-0.2 0.02 -0.28 -0.64 -0.12 -0.68 c1.16 -0.3 2.08 -0.48 2.08 -1.96 l0 -8.92 c0 -1.3 -0.84 -1.66 -1.7 -1.86 c-0.16 -0.04 -0.06 -0.68 0.1 -0.66 c1.48 0.14 3.82 0.12 5.16 0.12 c1.82 0 3.16 -0.08 4.76 -0.12 c0.48 0 0.48 0.32 0.38 0.78 l-0.48 1.88 c-0.06 0.28 -0.56 0.28 -0.64 0 c-0.3 -0.96 -0.9 -1.56 -3.42 -1.56 c-1.46 0 -1.92 0.36 -1.92 1.44 l0 3.28 c0 0.52 0.26 0.62 0.66 0.62 l0.42 0 c1.68 0 3.06 -0.14 3.9 -0.92 c0.2 -0.18 0.64 -0.14 0.46 0.24 l-1.16 2.52 c-0.14 0.34 -0.44 0.3 -0.66 0.02 c-0.46 -0.64 -1.5 -0.9 -2.7 -0.9 l-0.26 0 c-0.4 0 -0.66 0.1 -0.66 0.62 l0 3.42 c0 1.14 0.5 1.54 2.2 1.54 c3.12 0 4.24 -1.34 4.72 -2.14 c0.16 -0.24 0.66 -0.14 0.66 0.2 c0 1.06 -0.84 3.04 -2.08 3.04 c-1.06 -0.06 -2.24 -0.12 -3.92 -0.12 c-1.86 0 -3.94 -0.06 -5.78 0.12 z M192.82549999999998 20 c-0.16 0 -0.28 -0.64 -0.12 -0.66 c1 -0.14 1.68 -0.52 1.68 -1.8 l0 -9.1 c0 -1.26 -0.68 -1.66 -1.68 -1.8 c-0.16 -0.02 -0.04 -0.64 0.12 -0.64 l5.34 0 c0.16 0 0.28 0.62 0.12 0.64 c-0.86 0.12 -1.66 0.4 -1.66 1.8 l0 9.1 c0 1.4 0.8 1.68 1.66 1.8 c0.16 0.02 0.04 0.66 -0.12 0.66 l-5.34 0 z M214.54899999999998 20.2 c-0.32 0 -0.5 -0.14 -0.72 -0.38 l-9.56 -10.14 l0 7.82 c0 1.34 0.8 1.58 1.9 1.84 c0.16 0.04 0.08 0.66 -0.12 0.66 l-4.64 0 c-0.16 0 -0.28 -0.6 -0.1 -0.66 c0.88 -0.26 1.66 -0.46 1.66 -1.84 l0 -7.84 c0 -1.36 -0.2 -2.1 -0.78 -2.82 c-0.16 -0.2 -0.32 -0.36 -0.32 -0.42 c0 -0.18 0.12 -0.42 0.38 -0.42 l1.44 0 c0.2 0 0.34 0.02 0.48 0.18 l9.36 10.04 l0 -7.74 c0 -1.42 -0.88 -1.58 -1.88 -1.84 c-0.16 -0.04 -0.08 -0.64 0.12 -0.64 l4.62 0 c0.18 0 0.28 0.6 0.12 0.64 c-0.9 0.26 -1.66 0.42 -1.66 1.84 l0 7.86 c0 1.28 0.04 2.74 0.24 3.48 c0.08 0.3 -0.24 0.38 -0.54 0.38 z M224.71599999999995 20.04 c-0.2 0.02 -0.28 -0.64 -0.12 -0.68 c1.16 -0.3 2.08 -0.48 2.08 -1.96 l0 -8.96 c0 -1.4 -0.84 -1.68 -1.7 -1.8 c-0.16 -0.02 -0.04 -0.64 0.1 -0.64 l5.38 0 c0.16 0 0.26 0.62 0.12 0.64 c-0.86 0.12 -1.66 0.4 -1.66 1.8 l0 8.96 c0 1.14 0.5 1.54 2.2 1.54 c3.12 0 4.24 -1.34 4.72 -2.14 c0.16 -0.24 0.66 -0.14 0.66 0.2 c0 1.06 -0.84 3.04 -2.08 3.04 c-1.06 -0.06 -2.24 -0.12 -3.92 -0.12 c-1.86 0 -3.94 -0.06 -5.78 0.12 z M239.15949999999995 20.04 c-0.2 0.02 -0.28 -0.64 -0.12 -0.68 c1.16 -0.3 2.08 -0.48 2.08 -1.96 l0 -8.92 c0 -1.3 -0.84 -1.66 -1.7 -1.86 c-0.16 -0.04 -0.06 -0.68 0.1 -0.66 c1.48 0.14 3.82 0.12 5.16 0.12 c1.82 0 3.16 -0.08 4.76 -0.12 c0.48 0 0.48 0.32 0.38 0.78 l-0.48 1.88 c-0.06 0.28 -0.56 0.28 -0.64 0 c-0.3 -0.96 -0.9 -1.56 -3.42 -1.56 c-1.46 0 -1.92 0.36 -1.92 1.44 l0 3.28 c0 0.52 0.26 0.62 0.66 0.62 l0.42 0 c1.68 0 3.06 -0.14 3.9 -0.92 c0.2 -0.18 0.64 -0.14 0.46 0.24 l-1.16 2.52 c-0.14 0.34 -0.44 0.3 -0.66 0.02 c-0.46 -0.64 -1.5 -0.9 -2.7 -0.9 l-0.26 0 c-0.4 0 -0.66 0.1 -0.66 0.62 l0 3.42 c0 1.14 0.5 1.54 2.2 1.54 c3.12 0 4.24 -1.34 4.72 -2.14 c0.16 -0.24 0.66 -0.14 0.66 0.2 c0 1.06 -0.84 3.04 -2.08 3.04 c-1.06 -0.06 -2.24 -0.12 -3.92 -0.12 c-1.86 0 -3.94 -0.06 -5.78 0.12 z M253.80299999999994 20.04 c-0.2 0.02 -0.28 -0.64 -0.12 -0.68 c1.16 -0.3 2.08 -0.48 2.08 -1.96 l0 -8.96 c0 -1.4 -0.84 -1.68 -1.7 -1.8 c-0.16 -0.02 -0.04 -0.64 0.1 -0.64 l5.38 0 c0.16 0 0.26 0.62 0.12 0.64 c-0.86 0.12 -1.66 0.4 -1.66 1.8 l0 8.96 c0 1.14 0.5 1.54 2.2 1.54 c3.12 0 4.24 -1.34 4.72 -2.14 c0.16 -0.24 0.66 -0.14 0.66 0.2 c0 1.06 -0.84 3.04 -2.08 3.04 c-1.06 -0.06 -2.24 -0.12 -3.92 -0.12 c-1.86 0 -3.94 -0.06 -5.78 0.12 z M275.84649999999993 20.32 c-4.16 0 -7.2 -3.1 -7.2 -7.24 c0 -4.04 2.86 -7.4 7.24 -7.4 c4.18 0 7.2 3.08 7.2 7.22 c0 4.06 -2.84 7.42 -7.24 7.42 z M276.6064999999999 19.02 c1.8 0 4.26 -1.16 4.26 -5.04 c0 -4.08 -2.8 -7 -5.74 -7 c-1.8 0 -4.22 1.16 -4.22 5 c0 4.12 2.78 7.04 5.7 7.04 z"></path></g>
			</g>
		</svg>
	